<mxfile host="app.diagrams.net" modified="2024-02-20T13:26:56.184Z" agent="Mozilla/5.0 (Macintosh; Intel Mac OS X 10_15_7) AppleWebKit/537.36 (KHTML, like Gecko) Chrome/121.0.0.0 Safari/537.36" etag="mxcq-DBBJGqJ7VQKs5zi" version="23.0.2" type="github">
  <diagram name="第 1 页" id="_aEVsnGwdUrKQqscfobR">
    <mxGraphModel dx="1434" dy="820" grid="1" gridSize="10" guides="1" tooltips="1" connect="1" arrows="1" fold="1" page="1" pageScale="1" pageWidth="1200" pageHeight="500" math="0" shadow="0">
      <root>
        <mxCell id="0" />
        <mxCell id="1" parent="0" />
        <mxCell id="IVn4J9uPTKWjjx_IC5SH-10" value="" style="edgeStyle=orthogonalEdgeStyle;rounded=0;orthogonalLoop=1;jettySize=auto;html=1;" edge="1" parent="1" source="IVn4J9uPTKWjjx_IC5SH-7" target="IVn4J9uPTKWjjx_IC5SH-9">
          <mxGeometry relative="1" as="geometry" />
        </mxCell>
        <mxCell id="IVn4J9uPTKWjjx_IC5SH-14" value="" style="edgeStyle=orthogonalEdgeStyle;rounded=0;orthogonalLoop=1;jettySize=auto;html=1;" edge="1" parent="1" source="IVn4J9uPTKWjjx_IC5SH-7" target="IVn4J9uPTKWjjx_IC5SH-6">
          <mxGeometry relative="1" as="geometry" />
        </mxCell>
        <mxCell id="IVn4J9uPTKWjjx_IC5SH-7" value="" style="rounded=1;whiteSpace=wrap;html=1;fillColor=#d5e8d4;strokeColor=#82b366;" vertex="1" parent="1">
          <mxGeometry x="40" y="135" width="120" height="190" as="geometry" />
        </mxCell>
        <mxCell id="IVn4J9uPTKWjjx_IC5SH-1" value="历史对话" style="rounded=0;whiteSpace=wrap;html=1;" vertex="1" parent="1">
          <mxGeometry x="50" y="155" width="100" height="40" as="geometry" />
        </mxCell>
        <mxCell id="IVn4J9uPTKWjjx_IC5SH-2" value="用户画像" style="rounded=0;whiteSpace=wrap;html=1;" vertex="1" parent="1">
          <mxGeometry x="50" y="345" width="100" height="40" as="geometry" />
        </mxCell>
        <mxCell id="IVn4J9uPTKWjjx_IC5SH-3" value="场" style="rounded=0;whiteSpace=wrap;html=1;" vertex="1" parent="1">
          <mxGeometry x="50" y="205" width="100" height="40" as="geometry" />
        </mxCell>
        <mxCell id="IVn4J9uPTKWjjx_IC5SH-4" value="场内动作" style="rounded=0;whiteSpace=wrap;html=1;" vertex="1" parent="1">
          <mxGeometry x="50" y="255" width="100" height="40" as="geometry" />
        </mxCell>
        <mxCell id="IVn4J9uPTKWjjx_IC5SH-5" value="" style="endArrow=none;dashed=1;html=1;dashPattern=1 3;strokeWidth=4;rounded=0;" edge="1" parent="1">
          <mxGeometry width="50" height="50" relative="1" as="geometry">
            <mxPoint x="80" y="315" as="sourcePoint" />
            <mxPoint x="120" y="315.5" as="targetPoint" />
          </mxGeometry>
        </mxCell>
        <mxCell id="IVn4J9uPTKWjjx_IC5SH-15" value="" style="edgeStyle=orthogonalEdgeStyle;rounded=0;orthogonalLoop=1;jettySize=auto;html=1;" edge="1" parent="1" source="IVn4J9uPTKWjjx_IC5SH-6" target="IVn4J9uPTKWjjx_IC5SH-8">
          <mxGeometry relative="1" as="geometry" />
        </mxCell>
        <mxCell id="IVn4J9uPTKWjjx_IC5SH-6" value="状态识别" style="rounded=1;whiteSpace=wrap;html=1;fillColor=#fff2cc;strokeColor=#d6b656;" vertex="1" parent="1">
          <mxGeometry x="52.5" y="60" width="95" height="40" as="geometry" />
        </mxCell>
        <mxCell id="IVn4J9uPTKWjjx_IC5SH-8" value="状态策划案" style="shape=cylinder3;whiteSpace=wrap;html=1;boundedLbl=1;backgroundOutline=1;size=15;fillColor=#dae8fc;strokeColor=#6c8ebf;" vertex="1" parent="1">
          <mxGeometry x="200" y="45" width="90" height="70" as="geometry" />
        </mxCell>
        <mxCell id="IVn4J9uPTKWjjx_IC5SH-20" value="" style="edgeStyle=orthogonalEdgeStyle;rounded=0;orthogonalLoop=1;jettySize=auto;html=1;" edge="1" parent="1" source="IVn4J9uPTKWjjx_IC5SH-9" target="IVn4J9uPTKWjjx_IC5SH-19">
          <mxGeometry relative="1" as="geometry" />
        </mxCell>
        <mxCell id="IVn4J9uPTKWjjx_IC5SH-9" value="LLM" style="rounded=1;whiteSpace=wrap;html=1;fillColor=#fff2cc;strokeColor=#d6b656;" vertex="1" parent="1">
          <mxGeometry x="240" y="200" width="120" height="60" as="geometry" />
        </mxCell>
        <mxCell id="IVn4J9uPTKWjjx_IC5SH-11" value="" style="endArrow=classic;html=1;rounded=0;entryX=0;entryY=0.5;entryDx=0;entryDy=0;" edge="1" parent="1" target="IVn4J9uPTKWjjx_IC5SH-9">
          <mxGeometry width="50" height="50" relative="1" as="geometry">
            <mxPoint x="150" y="365" as="sourcePoint" />
            <mxPoint x="200" y="315" as="targetPoint" />
          </mxGeometry>
        </mxCell>
        <mxCell id="IVn4J9uPTKWjjx_IC5SH-12" value="候选因子" style="shape=cylinder3;whiteSpace=wrap;html=1;boundedLbl=1;backgroundOutline=1;size=15;fillColor=#dae8fc;strokeColor=#6c8ebf;" vertex="1" parent="1">
          <mxGeometry x="330" y="45" width="90" height="70" as="geometry" />
        </mxCell>
        <mxCell id="IVn4J9uPTKWjjx_IC5SH-16" value="" style="endArrow=classic;html=1;rounded=0;exitX=0.5;exitY=1;exitDx=0;exitDy=0;exitPerimeter=0;entryX=0.5;entryY=0;entryDx=0;entryDy=0;" edge="1" parent="1" source="IVn4J9uPTKWjjx_IC5SH-8" target="IVn4J9uPTKWjjx_IC5SH-9">
          <mxGeometry width="50" height="50" relative="1" as="geometry">
            <mxPoint x="570" y="350" as="sourcePoint" />
            <mxPoint x="620" y="300" as="targetPoint" />
          </mxGeometry>
        </mxCell>
        <mxCell id="IVn4J9uPTKWjjx_IC5SH-17" value="" style="endArrow=classic;html=1;rounded=0;exitX=0.5;exitY=1;exitDx=0;exitDy=0;exitPerimeter=0;entryX=0.5;entryY=0;entryDx=0;entryDy=0;" edge="1" parent="1" source="IVn4J9uPTKWjjx_IC5SH-12" target="IVn4J9uPTKWjjx_IC5SH-9">
          <mxGeometry width="50" height="50" relative="1" as="geometry">
            <mxPoint x="570" y="350" as="sourcePoint" />
            <mxPoint x="620" y="300" as="targetPoint" />
          </mxGeometry>
        </mxCell>
        <mxCell id="IVn4J9uPTKWjjx_IC5SH-19" value="输出问询因子" style="rounded=0;whiteSpace=wrap;html=1;" vertex="1" parent="1">
          <mxGeometry x="410" y="210" width="90" height="40" as="geometry" />
        </mxCell>
      </root>
    </mxGraphModel>
  </diagram>
</mxfile>
